<?xml version="1.0" encoding="utf-8"?>
<!-- Generator: Adobe Illustrator 28.2.0, SVG Export Plug-In . SVG Version: 6.00 Build 0)  -->
<svg version="1.1" id="Layer_1" xmlns="http://www.w3.org/2000/svg" xmlns:xlink="http://www.w3.org/1999/xlink" x="0px" y="0px"
	 viewBox="0 0 531.5 211.4" style="enable-background:new 0 0 531.5 211.4;" xml:space="preserve">
<style type="text/css">
	.st0{fill-rule:evenodd;clip-rule:evenodd;fill:#0068FF;}
	.st1{opacity:0.1;fill-rule:evenodd;clip-rule:evenodd;fill:url(#SVGID_1_);enable-background:new    ;}
	.st2{fill-rule:evenodd;clip-rule:evenodd;fill:#FFFFFF;}
	.st3{fill:#0068FF;}
	.st4{fill:none;}
	.st5{fill:#FFFFFF;}
	
		.st6{opacity:0.1;fill-rule:evenodd;clip-rule:evenodd;fill:url(#SVGID_00000032640402057988814310000008692827482274711201_);enable-background:new    ;}
	
		.st7{opacity:0.1;fill-rule:evenodd;clip-rule:evenodd;fill:url(#SVGID_00000164491711135926096220000010198067511866049207_);enable-background:new    ;}
</style>
<g>
	<path class="st0" d="M266,27h5.7c7.8,0,12.4,1.1,16.4,3.3c4.1,2.2,7.3,5.3,9.4,9.4c2.2,4.1,3.3,8.6,3.3,16.4v5.7
		c0,7.8-1.1,12.4-3.3,16.4c-2.2,4.1-5.3,7.3-9.4,9.4c-4.1,2.2-8.6,3.3-16.4,3.3H266c-7.8,0-12.4-1.1-16.4-3.3
		c-4.1-2.2-7.3-5.3-9.4-9.4c-2.2-4.1-3.3-8.6-3.3-16.4v-5.7c0-7.8,1.1-12.4,3.3-16.4c2.2-4.1,5.3-7.3,9.4-9.4
		C253.6,28.1,258.2,27,266,27z"/>
	
		<linearGradient id="SVGID_1_" gradientUnits="userSpaceOnUse" x1="246.0263" y1="885.9" x2="300.653" y2="885.9" gradientTransform="matrix(1 0 0 1 0 -810)">
		<stop  offset="0" style="stop-color:#000000"/>
		<stop  offset="0.9379" style="stop-color:#000000;stop-opacity:6.207597e-02"/>
		<stop  offset="1" style="stop-color:#000000;stop-opacity:0"/>
	</linearGradient>
	<path class="st1" d="M300.7,60.9v0.9c0,7.8-1.4,12.4-3.6,16.4c-2.2,4.1-4.8,7.2-8.9,9.3c-4.1,2.2-8.6,3.4-16.4,3.4h-5.7
		c-6.4,0-10.6-0.8-14.2-2.2l-5.8-6L300.7,60.9z"/>
	<path class="st2" d="M246.6,83c2.9,0.3,6.6-0.5,9.2-1.8c10.7,5.9,26.9,6.1,37.6,0.3c1.3-0.7,2.4-1.8,3.1-3.1l0,0
		c2.1-4,3.3-8.5,3.3-16.1v-5.6c0-7.7-0.9-12.3-3-16.2c-2.1-4-5.2-7.1-9.2-9.2s-8.7-3.1-16.4-3.1h-5.6c-6.1,0-10.2,0.7-13.6,2.1
		c-0.5,0.2-0.9,0.5-1.3,0.8l0,0c-10.4,10.1-11.2,31.9-2.4,43.7c0,0,0,0,0,0.1c1.4,2,0,5.5-2,7.6C246,82.7,246.1,82.9,246.6,83z"/>
	<g>
		<path class="st3" d="M263.2,48.7h-12.5v2.7h8.7L250.8,62c-0.3,0.4-0.5,0.8-0.5,1.6v0.7h11.8c0.6,0,1.1-0.5,1.1-1.1v-1.4h-9.1
			l8.5-10.7c0.5-0.7,0.6-1.3,0.6-2V48.7z"/>
		<path class="st3" d="M279.1,64.2h1.8V48.7h-2.7v14.7C278.2,63.8,278.6,64.2,279.1,64.2z"/>
		<path class="st3" d="M269.9,52.1c-3.4,0-6.1,2.7-6.1,6.1c0,3.4,2.7,6.1,6.1,6.1s6.1-2.7,6.1-6.1C276.1,54.9,273.3,52.1,269.9,52.1
			z M269.9,61.8c-2,0-3.6-1.6-3.6-3.6s1.6-3.6,3.6-3.6s3.6,1.6,3.6,3.6S271.9,61.8,269.9,61.8z"/>
		<path class="st3" d="M288.8,52c-3.4,0-6.2,2.8-6.2,6.2s2.8,6.2,6.2,6.2s6.2-2.8,6.2-6.2S292.2,52,288.8,52z M288.8,61.8
			c-2,0-3.6-1.6-3.6-3.6s1.6-3.6,3.6-3.6s3.6,1.6,3.6,3.6S290.8,61.8,288.8,61.8z"/>
		<path class="st3" d="M274.6,64.2h1.4V52.5h-2.5v10.7C273.5,63.8,274,64.2,274.6,64.2z"/>
	</g>
</g>
<g>
	<rect x="27.4" y="27" class="st4" width="64" height="64"/>
	<g>
		<path class="st3" d="M74.9,27h-31c-7.6,0-13.7,6.2-13.7,13.7v31c0,7.6,6.2,13.7,13.7,13.7h9.2c0,0.1,0.1,0.2,0.2,0.2l4.7,4.7
			c0.7,0.7,1.9,0.7,2.6,0l4.7-4.7c0.1-0.1,0.1-0.2,0.2-0.2H75c7.6,0,13.7-6.2,13.7-13.7v-31C88.6,33.1,82.5,27,74.9,27z"/>
		<path class="st5" d="M48,41.7v5h16.2l-16,19.8c-0.5,0.7-0.9,1.4-0.9,3v1.3h22.1c1.1,0,2-0.9,2-2v-2.7h-17l15.9-20
			c0.9-1.3,1-2.4,1-3.7l0-0.7H48z"/>
	</g>
</g>
<g>
	<path class="st3" d="M297.5,126.4c-2.1-4.1-5.3-7.2-9.4-9.4c-4.1-2.2-8.6-3.3-16.4-3.3H266c-7.8,0-12.4,1.1-16.4,3.3
		c-4.1,2.1-7.2,5.3-9.4,9.4s-3.3,8.6-3.3,16.4v5.7c0,7.8,1.1,12.4,3.3,16.4c2.1,4.1,5.3,7.2,9.4,9.4c4.1,2.2,8.6,3.3,16.4,3.3h5.7
		c7.8,0,12.4-1.1,16.4-3.3c4.1-2.1,7.2-5.3,9.4-9.4c2.2-4.1,3.3-8.6,3.3-16.4v-5.7C300.8,135,299.7,130.4,297.5,126.4z M299.7,148.9
		c0,7.7-1.1,12.1-3.3,16.1l0,0c-0.7,1.3-1.8,2.4-3.1,3.1c-10.7,5.8-26.9,5.6-37.6-0.3c-2.6,1.3-6.2,2.1-9.2,1.8
		c-0.5,0-0.6-0.2-0.3-0.6c2.1-2.1,3.4-5.6,2-7.6c0,0,0,0,0-0.1c-8.9-11.9-8.1-33.7,2.4-43.7l0,0c0.4-0.4,0.8-0.6,1.3-0.8
		c3.4-1.4,7.5-2.1,13.6-2.1h5.6c7.7,0,12.4,1,16.4,3.1s7.1,5.2,9.2,9.2s3,8.6,3,16.2V148.9L299.7,148.9z"/>
	<path class="st3" d="M262.1,138.3c0.1-0.1,0.4-0.6,0.4-0.6c0.5-0.7,0.6-1.3,0.6-2v-0.4h-12.5v2.7h8.7l-8.6,10.6
		c-0.3,0.4-0.5,0.8-0.5,1.6v0.7H262c0.6,0,1.1-0.5,1.1-1.1v-1.4H254L262.1,138.3z"/>
	<path class="st3" d="M278.2,150c0,0.5,0.4,0.9,0.9,0.9h1.8v-15.6h-2.7L278.2,150L278.2,150z"/>
	<path class="st3" d="M288.8,138.7c-3.4,0-6.2,2.8-6.2,6.2s2.8,6.2,6.2,6.2s6.2-2.8,6.2-6.2C294.9,141.4,292.2,138.7,288.8,138.7z
		 M288.8,148.5c-2,0-3.6-1.6-3.6-3.6s1.6-3.6,3.6-3.6s3.6,1.6,3.6,3.6S290.8,148.5,288.8,148.5z"/>
	<path class="st3" d="M273.5,140c-1-0.7-2.3-1.2-3.6-1.2c-3.4,0-6.1,2.7-6.1,6.1c0,3.4,2.7,6.1,6.1,6.1c1.4,0,2.6-0.4,3.6-1.2l0,0
		c0,0.6,0.5,1.1,1.1,1.1h1.4v-11.8h-2.5V140z M269.9,148.5c-2,0-3.6-1.6-3.6-3.6s1.6-3.6,3.6-3.6s3.6,1.6,3.6,3.6
		S271.9,148.5,269.9,148.5z"/>
</g>
<g>
	<rect x="27.4" y="113.6" class="st4" width="64" height="64"/>
	<path class="st3" d="M74.9,113.6h-31c-7.6,0-13.7,6.2-13.7,13.7v31c0,7.6,6.2,13.7,13.7,13.7h9.2c0,0.1,0.1,0.2,0.2,0.2l4.7,4.7
		c0.7,0.7,1.9,0.7,2.6,0l4.7-4.7c0.1-0.1,0.1-0.2,0.2-0.2H75c7.6,0,13.7-6.2,13.7-13.7v-31C88.6,119.8,82.5,113.6,74.9,113.6z
		 M71.6,155.4c0,1.1-1.1,2-2.2,2H47.3v-1.3c0-1.5,0.4-2.2,0.9-3l16-19.8H48v-5h23.4v0.7c0,1.3-0.2,2.4-1,3.7l-15.9,20h17.1V155.4
		L71.6,155.4L71.6,155.4z"/>
</g>
<g>
	<path class="st3" d="M371.5,113.7c-19.3-1.2-35.2,14.7-34,34c1,15.9,13.9,28.9,29.9,29.9c19.3,1.2,35.2-14.7,34-34
		C400.3,127.6,387.4,114.7,371.5,113.7z M361,165.4c-0.4-0.2-1-0.3-1.4-0.1c-2.5,1.1-5.9,1.7-8.5,1.5c-0.5,0-0.6-0.2-0.3-0.6
		c2.1-2.1,3.4-5.6,2-7.6c0,0,0,0,0-0.1c-9.7-9.2-9.1-29.3-0.6-37.7c4.3-4.2,10.6-6.3,17-6.3c17.4,0,31.5,14.1,31.5,31.5
		c0,5.6-2,11.4-5.6,15.3C386.9,170,372.2,171.6,361,165.4z"/>
	<path class="st3" d="M365.2,137.8c0.1-0.1,0.5-0.6,0.5-0.6c0.5-0.7,0.6-1.2,0.6-1.9v-0.4h-12.2v2.6h8.5l-8.4,10.3
		c-0.2,0.4-0.5,0.7-0.5,1.6v0.7h11.5c0.6,0,1.1-0.5,1.1-1.1v-1.4h-8.9L365.2,137.8z"/>
	<path class="st3" d="M380.7,149.1c0,0.5,0.5,0.8,1,0.8h1.7v-15.1h-2.6V149.1L380.7,149.1z"/>
	<path class="st3" d="M397,143.4c-0.4-2.6-2.5-4.8-5.1-5.1c-3.9-0.5-7.2,2.8-6.7,6.7c0.4,2.6,2.5,4.8,5.1,5.1
		C394.3,150.6,397.5,147.3,397,143.4z M394.6,144.6c-0.1,1.7-1.4,3-3.1,3.1c-2.3,0.2-4.1-1.7-3.8-3.8c0.1-1.7,1.4-3,3.1-3.1
		C393,140.5,394.9,142.3,394.6,144.6z"/>
	<path class="st3" d="M376.3,139.5c-1-0.7-2.2-1.2-3.5-1.2c-3.4,0-6.1,2.8-6,6.1c0.1,3.1,2.6,5.6,5.7,5.7c1.4,0,2.8-0.4,3.7-1.2l0,0
		c0,0.6,0.5,1.1,1.1,1.1h1.4v-11.5h-2.4v1H376.3z M372.7,147.7c-2.2,0-3.8-1.9-3.5-4.2c0.2-1.3,1.3-2.4,2.8-2.8
		c2.3-0.5,4.2,1.3,4.2,3.5C376.2,146.2,374.8,147.7,372.7,147.7z"/>
</g>
<g>
	<g>
		<path class="st3" d="M453.1,51.1c0.7-1,0.8-1.8,0.8-2.8v-0.5H436v3.8h12.4l-12.3,15.2c-0.4,0.6-0.7,1.1-0.7,2.3v1h17
			c0.8,0,1.5-0.7,1.5-1.5v-2.1h-13.1L453.1,51.1z"/>
		<path class="st3" d="M475.4,68.8c0,0.7,0.6,1.3,1.3,1.3h2.6V47.7h-3.9V68.8z"/>
		<path class="st3" d="M490.6,52.6c-4.9,0-8.8,4-8.8,8.8s4,8.8,8.8,8.8c4.9,0,8.8-4,8.8-8.8S495.5,52.6,490.6,52.6z M490.6,66.6
			c-2.9,0-5.2-2.3-5.2-5.2c0-2.9,2.3-5.2,5.2-5.2c2.9,0,5.2,2.3,5.2,5.2C495.8,64.3,493.5,66.6,490.6,66.6z"/>
		<path class="st3" d="M468.7,54.4c-1.4-1.1-3.2-1.7-5.2-1.7c-4.8,0-8.7,3.9-8.7,8.7s3.9,8.7,8.7,8.7c1.9,0,3.7-0.6,5.2-1.7v0.1
			c0,0.8,0.7,1.5,1.5,1.5h2.1V53.2h-3.6V54.4z M463.6,66.6c-2.8,0-5.1-2.3-5.1-5.1c0-2.8,2.3-5.1,5.1-5.1c2.8,0,5.1,2.3,5.1,5.1
			C468.7,64.3,466.4,66.6,463.6,66.6z"/>
	</g>
	<rect x="435.4" y="27" class="st4" width="64" height="64"/>
</g>
<g>
	<path class="st3" d="M183.2,90.9h-39.8c-6.6,0-12-5.4-12-12V39c0-6.6,5.4-12,12-12h39.8c6.6,0,12,5.4,12,12v39.9
		C195.2,85.5,189.8,90.9,183.2,90.9z"/>
	
		<linearGradient id="SVGID_00000041277259853830100140000008210939639532409245_" gradientUnits="userSpaceOnUse" x1="167.8739" y1="69.3298" x2="172.2229" y2="75.0077">
		<stop  offset="0" style="stop-color:#000000"/>
		<stop  offset="0.9379" style="stop-color:#000000;stop-opacity:6.207597e-02"/>
		<stop  offset="1" style="stop-color:#000000;stop-opacity:0"/>
	</linearGradient>
	
		<path style="opacity:0.1;fill-rule:evenodd;clip-rule:evenodd;fill:url(#SVGID_00000041277259853830100140000008210939639532409245_);enable-background:new    ;" d="
		M195.2,60.6L142.8,81l9.3,9.9h31c6.6,0,12-5.4,12-12L195.2,60.6L195.2,60.6z"/>
	<path class="st5" d="M149.7,28c-0.2,0-0.4,0.1-0.7,0.1c-0.7,0.3-1.2,0.5-1.7,1c-10.5,10-11.3,31.8-2.4,43.7c0,0.1,0,0.1,0,0.1
		c1.4,2,0.1,5.5-2,7.6c-0.3,0.4-0.2,0.6,0.3,0.6c2.9,0.3,6.5-0.5,9.1-1.7c0.1,0,0.2,0,0.3,0c22.1,9.9,37.6,0.7,41-4.1
		c0.4-0.6,0.6-1.2,0.6-1.9V39c0-6.1-4.9-11-11-11H149.7z"/>
	<g>
		<path class="st3" d="M159.3,49.1h-12.1v2.6h8.4L147.3,62c-0.2,0.4-0.5,0.7-0.5,1.5v0.7h11.4c0.6,0,1.1-0.5,1.1-1.1v-1.4h-8.8
			l8.2-10.3c0.5-0.7,0.6-1.2,0.6-1.9V49.1L159.3,49.1z"/>
		<path class="st3" d="M174.7,64.1h1.7v-15h-2.6v14.1C173.8,63.7,174.3,64.1,174.7,64.1z"/>
		<path class="st3" d="M165.8,52.5c-3.2,0-5.9,2.6-5.9,5.9s2.6,5.9,5.9,5.9s5.9-2.6,5.9-5.9S169.2,52.5,165.8,52.5z M165.8,61.8
			c-1.9,0-3.4-1.5-3.4-3.4s1.5-3.4,3.4-3.4s3.4,1.5,3.4,3.4C169.3,60.3,167.9,61.8,165.8,61.8z"/>
		<path class="st3" d="M184.1,52.3c-3.3,0-5.9,2.6-5.9,5.9s2.6,5.9,5.9,5.9c3.3,0,5.9-2.6,5.9-5.9S187.3,52.3,184.1,52.3z
			 M184.1,61.8c-1.9,0-3.4-1.5-3.4-3.4s1.5-3.4,3.4-3.4s3.4,1.5,3.4,3.4C187.6,60.2,186,61.8,184.1,61.8z"/>
		<path class="st3" d="M170.3,64.1h1.4V52.7h-2.4V63C169.4,63.6,169.9,64.1,170.3,64.1z"/>
	</g>
</g>
<g>
	<path class="st3" d="M183.2,113.7h-39.8c-6.6,0-12,5.4-12,12v39.9c0,6.6,5.4,12,12,12h39.8c6.6,0,12-5.4,12-12v-39.9
		C195.2,119.1,189.8,113.7,183.2,113.7z M194.1,160c0,0.7-0.2,1.4-0.6,1.9c-3.4,4.8-18.9,14.1-41,4.1c-0.1,0-0.2,0-0.3,0
		c-2.6,1.3-6.1,2-9.1,1.7c-0.5,0-0.6-0.2-0.3-0.6c2.1-2.1,3.4-5.6,2-7.6c0,0,0,0,0-0.1c-8.9-11.9-8.1-33.7,2.4-43.7
		c0.5-0.5,1-0.7,1.7-1c0.3,0,0.5-0.1,0.7-0.1h33.4c6.1,0,11,4.9,11,11V160z"/>
	<path class="st3" d="M147.2,138.4h8.4l-8.3,10.3c-0.2,0.4-0.5,0.7-0.5,1.5v0.7h11.4c0.6,0,1.1-0.5,1.1-1.1v-1.4h-8.8l7.7-9.7
		c0.1-0.1,0.5-0.6,0.5-0.6c0.5-0.7,0.6-1.2,0.6-1.9v-0.4h-12.1V138.4z"/>
	<path class="st3" d="M173.8,149.9c0,0.5,0.5,0.9,0.9,0.9h1.7v-15h-2.6V149.9z"/>
	<path class="st3" d="M184.1,139c-3.3,0-5.9,2.6-5.9,5.9s2.6,5.9,5.9,5.9s5.9-2.6,5.9-5.9S187.3,139,184.1,139z M184.1,148.5
		c-1.9,0-3.4-1.5-3.4-3.4c0-1.9,1.5-3.4,3.4-3.4c1.9,0,3.4,1.5,3.4,3.4C187.6,146.9,186,148.5,184.1,148.5z"/>
	<path class="st3" d="M169.3,140.3c-1-0.7-2.2-1.1-3.5-1.1c-3.2,0-5.9,2.6-5.9,5.9s2.6,5.9,5.9,5.9c1.3,0,2.6-0.4,3.5-1.2
		c0.1,0.5,0.6,1,1,1h1.4v-11.4h-2.4V140.3z M165.8,148.5c-1.9,0-3.4-1.5-3.4-3.4c0-1.9,1.5-3.4,3.4-3.4c1.9,0,3.4,1.5,3.4,3.4
		C169.3,147,167.9,148.5,165.8,148.5z"/>
</g>
<g>
	<path class="st3" d="M493.1,113.7h-53.8c-2.8,0-5,2.2-5,5v53.9c0,2.8,2.2,5,5,5h53.8c2.8,0,5-2.2,5-5v-53.9
		C498.1,115.9,495.9,113.7,493.1,113.7z M497,118.7l0,40.8c0,1.2-0.4,2.4-1.3,3.3c-4.4,4.8-18.6,12.2-38.5,4
		c-1.1-0.5-2.4-0.5-3.6-0.1c-2.3,0.9-5.1,1.3-7.5,1.1c-0.5,0-0.6-0.2-0.3-0.6c2.1-2.1,3.4-5.6,2-7.6c0,0,0,0,0-0.1
		c-8.9-11.9-8.1-33.7,2.4-43.7c0.5-0.5,1-0.7,1.7-1c0.3,0,0.5-0.1,0.7-0.1H493C495.2,114.7,497,116.5,497,118.7z"/>
	<path class="st3" d="M450.1,138.4h8.4l-8.3,10.3c-0.2,0.4-0.5,0.7-0.5,1.5v0.7h12.5v-2.5h-8.8l7.7-9.7c0.1-0.1,0.5-0.6,0.5-0.6
		c0.5-0.7,0.6-1.2,0.6-1.9v-0.4h-12.1V138.4z"/>
	<path class="st3" d="M476.7,149.9c0,0.5,0.5,0.9,0.9,0.9h1.7v-15h-2.6V149.9z"/>
	<path class="st3" d="M487,139c-4.4,0-7.6,4.6-5,9.4c0.3,0.6,0.9,1.2,1.5,1.5c4.7,2.6,9.4-0.6,9.4-5C492.9,141.6,490.2,139,487,139z
		 M487,148.5c-2.6,0-4.5-2.9-2.7-5.7c0.1-0.1,0.2-0.3,0.4-0.4c2.8-1.8,5.7,0,5.7,2.7C490.5,146.9,488.9,148.5,487,148.5z"/>
	<path class="st3" d="M472.2,140.3c-1-0.7-2.2-1.1-3.5-1.1c-4.3,0-7.7,4.7-4.9,9.5c0.4,0.6,0.9,1.1,1.5,1.4c2.6,1.4,5.1,1,6.9-0.3
		c0.1,0.5,0.6,1,1,1h1.4v-11.4h-2.4V140.3z M468.7,148.5c-2.6,0-4.5-2.9-2.7-5.7c0.1-0.1,0.2-0.3,0.4-0.4c2.8-1.8,5.7,0,5.7,2.7
		C472.2,147,470.8,148.5,468.7,148.5z"/>
</g>
<g>
	<g>
		<path class="st3" d="M371.5,27.1c-19.3-1.2-35.2,14.7-34,34c1,15.9,13.9,28.9,29.9,29.9c19.3,1.2,35.2-14.7,34-34
			C400.3,41,387.4,28.1,371.5,27.1z M361,78.7c-0.4-0.2-1-0.3-1.4-0.1c-2.5,1.1-5.9,1.7-8.5,1.5c-0.5,0-0.6-0.2-0.3-0.6
			c2.1-2.1,3.4-5.6,2-7.6c0,0,0,0,0-0.1c-9.7-9.2-9.1-29.3-0.6-37.7c4.3-4.2,10.6-6.3,17-6.3c17.4,0,31.5,14.1,31.5,31.5
			c0,5.6-2,11.4-5.6,15.3C386.9,83.4,372.2,85,361,78.7z"/>
		
			<linearGradient id="SVGID_00000112605404053000878750000013273837334352309141_" gradientUnits="userSpaceOnUse" x1="375.6636" y1="879.362" x2="379.9207" y2="886.2207" gradientTransform="matrix(1 0 0 1 0 -810)">
			<stop  offset="0" style="stop-color:#000000"/>
			<stop  offset="0.9379" style="stop-color:#000000;stop-opacity:6.207597e-02"/>
			<stop  offset="1" style="stop-color:#000000;stop-opacity:0"/>
		</linearGradient>
		
			<path style="opacity:0.1;fill-rule:evenodd;clip-rule:evenodd;fill:url(#SVGID_00000112605404053000878750000013273837334352309141_);enable-background:new    ;" d="
			M401.4,59.9L350.6,80c0,0,6.1,11,18.5,11C386.9,91,401.2,77,401.4,59.9z"/>
	</g>
	<path class="st5" d="M361,78.7c-0.4-0.2-1-0.3-1.4-0.1c-2.5,1.1-5.9,1.7-8.5,1.5c-0.5,0-0.6-0.2-0.3-0.6c2.1-2.1,3.4-5.6,2-7.6
		c0,0,0,0,0-0.1c-9.7-9.2-9.1-29.3-0.6-37.7c4.3-4.2,10.6-6.3,17-6.3c17.4,0,31.5,14.1,31.5,31.5c0,5.6-2,11.4-5.6,15.3
		C386.9,83.4,372.2,85,361,78.7z"/>
	<g>
		<path class="st3" d="M365.2,51.1c0.1-0.1,0.5-0.6,0.5-0.6c0.5-0.7,0.6-1.2,0.6-1.9v-0.4h-12.2v2.6h8.5l-8.4,10.3
			c-0.2,0.4-0.5,0.7-0.5,1.6v0.7h11.5c0.6,0,1.1-0.5,1.1-1.1v-1.4h-8.9L365.2,51.1z"/>
		<path class="st3" d="M380.7,62.5c0,0.5,0.5,0.8,1,0.8h1.7V48.3h-2.6V62.5L380.7,62.5z"/>
		<path class="st3" d="M397,56.8c-0.4-2.6-2.5-4.8-5.1-5.1c-3.9-0.5-7.2,2.8-6.7,6.7c0.4,2.6,2.5,4.8,5.1,5.1
			C394.3,63.9,397.5,60.7,397,56.8z M394.6,57.9c-0.1,1.7-1.4,3-3.1,3.1c-2.3,0.2-4.1-1.7-3.8-3.8c0.1-1.7,1.4-3,3.1-3.1
			C393,53.9,394.9,55.7,394.6,57.9z"/>
		<path class="st3" d="M376.3,52.8c-1-0.7-2.2-1.2-3.5-1.2c-3.4,0-6.1,2.8-6,6.1c0.1,3.1,2.6,5.6,5.7,5.7c1.4,0,2.8-0.4,3.7-1.2l0,0
			c0,0.6,0.5,1.1,1.1,1.1h1.4V51.8h-2.4v1H376.3z M372.7,61.1c-2.2,0-3.8-1.9-3.5-4.2c0.2-1.3,1.3-2.4,2.8-2.8
			c2.3-0.5,4.2,1.3,4.2,3.5C376.2,59.5,374.8,61.1,372.7,61.1z"/>
	</g>
</g>
</svg>
